<svg width="23" height="20" viewBox="0 0 23 20" fill="none" xmlns="http://www.w3.org/2000/svg">
<rect width="23" height="20" rx="3" fill="#242A2D"/>
<path d="M4.396 10.676C4.396 9.988 4.536 9.388 4.816 8.876C5.096 8.356 5.484 7.956 5.98 7.676C6.476 7.388 7.044 7.244 7.684 7.244C8.508 7.244 9.188 7.452 9.724 7.868C10.268 8.276 10.632 8.852 10.816 9.596H9.004C8.908 9.308 8.744 9.084 8.512 8.924C8.288 8.756 8.008 8.672 7.672 8.672C7.192 8.672 6.812 8.848 6.532 9.2C6.252 9.544 6.112 10.036 6.112 10.676C6.112 11.308 6.252 11.8 6.532 12.152C6.812 12.496 7.192 12.668 7.672 12.668C8.352 12.668 8.796 12.364 9.004 11.756H10.816C10.632 12.476 10.268 13.048 9.724 13.472C9.18 13.896 8.5 14.108 7.684 14.108C7.044 14.108 6.476 13.968 5.98 13.688C5.484 13.4 5.096 13 4.816 12.488C4.536 11.968 4.396 11.364 4.396 10.676ZM15.9828 14L13.7268 11.168V14H12.0468V5.12H13.7268V10.172L15.9588 7.352H18.1428L15.2148 10.688L18.1668 14H15.9828Z" fill="#87A383"/>
</svg>
