<svg width="23" height="20" viewBox="0 0 23 20" fill="none" xmlns="http://www.w3.org/2000/svg">
<rect width="23" height="20" rx="3" fill="#242A2D"/>
<path d="M12.084 7.256C12.9 7.256 13.556 7.508 14.052 8.012C14.556 8.508 14.808 9.204 14.808 10.1V14H13.128V10.328C13.128 9.808 12.996 9.412 12.732 9.14C12.468 8.86 12.108 8.72 11.652 8.72C11.196 8.72 10.832 8.86 10.56 9.14C10.296 9.412 10.164 9.808 10.164 10.328V14H8.484V10.328C8.484 9.808 8.352 9.412 8.088 9.14C7.824 8.86 7.464 8.72 7.008 8.72C6.544 8.72 6.176 8.86 5.904 9.14C5.64 9.412 5.508 9.808 5.508 10.328V14H3.828V7.352H5.508V8.156C5.724 7.876 6 7.656 6.336 7.496C6.68 7.336 7.056 7.256 7.464 7.256C7.984 7.256 8.448 7.368 8.856 7.592C9.264 7.808 9.58 8.12 9.804 8.528C10.02 8.144 10.332 7.836 10.74 7.604C11.156 7.372 11.604 7.256 12.084 7.256ZM18.3582 8.732V11.948C18.3582 12.172 18.4102 12.336 18.5142 12.44C18.6262 12.536 18.8102 12.584 19.0662 12.584H19.8462V14H18.7902C17.3742 14 16.6662 13.312 16.6662 11.936V8.732H15.8742V7.352H16.6662V5.708H18.3582V7.352H19.8462V8.732H18.3582Z" fill="#87A383"/>
</svg>
